<svg version="1" xmlns="http://www.w3.org/2000/svg" width="933.333" height="933.333" viewBox="0 0 700.000000 700.000000"><path d="M314.8 11.5c-.2.1-3.3.5-6.9.9-8.6.8-22.6 3.7-36.1 7.5-37.7 10.7-64.4 31.6-79.5 62.4-3.3 6.8-7.2 18.8-7.9 24.4-.3 2.7-.9 6.4-1.2 8.3-.3 1.9-.6 111.5-.7 243.5l-.2 240 2.5 7.5c14.3 43.3 45.4 67.6 100.2 78.4 24 4.7 96.3 6.8 113.5 3.2 1.1-.2 4.3-.7 7-1 21.6-2.9 47.8-12.6 65.1-24.3 24.2-16.2 40.8-41.7 45.9-70.3 1.2-6.8 1.4-28.7 1.6-164.2l.1-136.8-3.3-6.5c-7.2-14.3-22.8-28.9-39.5-37-21.9-10.5-40.5-13.9-75.4-13.9-40.4 0-59.9 4.2-70.4 15l-4.2 4.3V196c.1-64-.6-58.5 8-63.5 12.2-7.1 24.8-6.3 38.9 2.7 3.5 2.3 4.7 3.7 4.8 5.7.1 1.4.1 17.1.1 34.7l-.1 32.1h70.4c64.1 0 70.5-.1 70.6-1.6.1-2.1-.2-44.4-.5-75.1-.2-24-.3-24.7-3.1-32.5-7-20.1-16.1-35.1-28.8-47.7-19-19-46.1-31.8-77.2-36.7-3.8-.6-8.6-1.3-10.5-1.7-3.2-.6-82.5-1.5-83.2-.9zm124.8 352c9.7 5.3 8.9 2.1 8.9 32V422l-3 .1c-1.6 0-3.8.2-4.8.4-.9.2-5 .6-9 1-7.3.7-18.5 2.1-22.3 2.9-1.2.2-3.7.7-5.5 1-4.5.7-20.6 5.4-23 6.7-2.3 1.2-2.1-1.6-2.1 30.6.1 14.5-.2 26.5-.6 26.7-.4.2-4.1.7-8.2 1.1-12.9 1.1-22.9 4.5-29.4 9.9l-2.9 2.4-.2 49.9c-.1 27.4-.3 51.8-.4 54.4-.1 3.6-.7 5.2-3.3 8l-3.3 3.6-14.2-.1c-12.6-.1-14.4-.3-16.3-2.1-1.5-1.4-3.6-2-6.9-2h-4.6l-.1-4.5c0-2.5.6-5.6 1.4-6.9.8-1.3 1.6-4 1.9-6 .7-5.6.9-187.9.2-198.3-.4-5.3-1.3-10.5-2.2-12.2-1.7-3.1-1.3-5.4 1.1-7.3.8-.7 1.6-2.3 1.7-3.7.4-3.7 1.3-4.6 4.5-4.6 1.7 0 3.3-.7 3.9-1.8.8-1.5 3-1.7 18.3-2l17.3-.3 3.5 4.8c9.3 12.7 24.3 12 54.8-2.9 19.7-9.5 24-10.9 32.8-10.4 5.2.3 8.3 1.1 12 3.1z"/><path d="M362.9 435.2c-.9 3-.7 5.9.7 7 5.4 4.3 7.6 7 6.6 8-.7.7-2.4.4-5.5-1-5.1-2.3-9.1-2.1-14.7.8-5.4 2.8-7 4.3-7.5 7-.4 2.1-.9 24.2-.6 29.2.1 1.6 1.6 1.8 16.5 1.8h16.4l-.3-21.8c-.2-22.2-.7-25.4-4.5-29.2-1.6-1.6-6.7-2.9-7.1-1.8z"/></svg>