<?xml version="1.0" standalone="no"?>
<!DOCTYPE svg PUBLIC "-//W3C//DTD SVG 20010904//EN"
 "http://www.w3.org/TR/2001/REC-SVG-20010904/DTD/svg10.dtd">
<svg version="1.0" xmlns="http://www.w3.org/2000/svg"
 width="700.000000pt" height="700.000000pt" viewBox="0 0 700.000000 700.000000"
 preserveAspectRatio="xMidYMid meet">
<metadata>
Created by potrace 1.11, written by Peter Selinger 2001-2013
</metadata>
<g transform="translate(0.000000,700.000000) scale(0.100000,-0.100000)"
fill="#000000" stroke="none">
<path d="M2980 6950 c-403 -72 -669 -192 -883 -399 -167 -161 -269 -330 -322
-533 -36 -134 -37 -263 -36 -2666 l2 -2363 35 -101 c63 -181 130 -293 248
-417 214 -223 540 -369 929 -415 328 -40 865 -45 1082 -11 544 85 920 325
1109 708 54 110 92 220 107 313 8 48 13 531 16 1549 l5 1481 -36 77 c-82 173
-256 339 -450 431 -247 117 -462 153 -865 143 -286 -7 -406 -25 -568 -85 -10
-3 -13 92 -13 457 l0 460 48 28 c68 40 154 39 237 -3 l60 -30 3 -367 2 -367
791 0 790 0 -7 553 -7 552 -34 100 c-150 434 -414 688 -868 836 -229 75 -367
89 -865 88 -350 -1 -419 -3 -510 -19z m1093 -173 c545 -110 849 -353 990 -792
25 -80 25 -80 30 -527 l4 -448 -618 0 -619 0 0 306 c0 351 2 341 -88 401 -100
66 -165 87 -272 87 -109 1 -149 -13 -262 -91 l-68 -46 0 -721 c0 -396 4 -716
8 -710 5 5 47 56 94 114 110 134 123 146 191 170 125 44 225 54 532 54 315 0
391 -8 556 -60 241 -76 444 -231 524 -400 l25 -53 -1 -1133 c0 -623 -4 -1295
-9 -1493 -7 -324 -10 -367 -29 -433 -81 -276 -276 -505 -547 -640 -157 -79
-397 -140 -634 -163 -138 -13 -545 -7 -765 11 -423 35 -725 147 -933 344 -121
115 -192 228 -246 392 l-27 81 4 2429 c3 2703 -3 2475 71 2645 53 123 93 183
193 289 166 174 329 266 610 341 250 67 271 68 763 65 354 -3 461 -7 523 -19z"/>
<path d="M4170 3475 c-65 -16 -183 -65 -258 -107 -144 -80 -327 -126 -394 -99
-16 6 -43 34 -63 66 l-36 55 -207 0 c-189 0 -210 -2 -240 -20 -18 -11 -39 -20
-46 -20 -24 0 -73 -48 -81 -77 -3 -16 -14 -36 -22 -45 -25 -28 -28 -108 -7
-154 18 -37 19 -84 19 -1044 0 -934 -1 -1008 -17 -1048 -13 -31 -18 -70 -18
-143 l0 -102 68 7 c56 6 73 3 107 -14 34 -17 58 -20 193 -20 166 0 185 5 233
57 56 60 54 38 57 611 l3 532 38 25 c45 30 140 51 273 60 l98 7 2 297 3 296
75 21 c107 31 233 51 440 70 l180 17 0 324 0 323 -60 44 c-108 80 -231 109
-340 81z m192 -186 l38 -19 0 -205 0 -204 -42 -5 c-24 -3 -88 -10 -143 -16
-140 -16 -313 -56 -422 -97 l-93 -36 0 -273 c0 -269 0 -274 -20 -274 -48 0
-179 -33 -230 -59 -30 -15 -79 -45 -108 -66 l-52 -39 0 -546 c0 -411 -3 -549
-12 -558 -15 -15 -224 -17 -233 -1 -4 5 -18 15 -32 20 -21 8 -24 13 -17 32 12
34 17 1984 5 2104 -6 56 -8 109 -5 117 3 8 21 24 40 36 30 17 52 20 158 20
l122 0 51 -49 c69 -66 128 -85 242 -79 107 7 201 37 381 125 224 108 279 119
372 72z"/>
</g>
</svg>
