<svg xmlns="http://www.w3.org/2000/svg" version="1.0" viewBox="0 0 700 700">
  <path
    d="M298 5c-40.3 7.2-66.9 19.2-88.3 39.9-16.7 16.1-26.9 33-32.2 53.3-3.6 13.4-3.7 26.3-3.6 266.6l.2 236.3 3.5 10.1c6.3 18.1 13 29.3 24.8 41.7 21.4 22.3 54 36.9 92.9 41.5 32.8 4 86.5 4.5 108.2 1.1 54.4-8.5 92-32.5 110.9-70.8 5.4-11 9.2-22 10.7-31.3.8-4.8 1.3-53.1 1.6-154.9l.5-148.1-3.6-7.7c-8.2-17.3-25.6-33.9-45-43.1-24.7-11.7-46.2-15.3-86.5-14.3-28.6.7-40.6 2.5-56.8 8.5-1 .3-1.3-9.2-1.3-45.7v-46l4.8-2.8c6.8-4 15.4-3.9 23.7.3l6 3 .3 36.7.2 36.7h158.1l-.7-55.3-.7-55.2-3.4-10c-15-43.4-41.4-68.8-86.8-83.6C412.6 4.4 398.8 3 349 3.1c-35 .1-41.9.3-51 1.9zm109.3 17.3c54.5 11 84.9 35.3 99 79.2 2.5 8 2.5 8 3 52.7l.4 44.8H386v-30.6c0-35.1.2-34.1-8.8-40.1-10-6.6-16.5-8.7-27.2-8.7-10.9-.1-14.9 1.3-26.2 9.1l-6.8 4.6v72.1c0 39.6.4 71.6.8 71 .5-.5 4.7-5.6 9.4-11.4 11-13.4 12.3-14.6 19.1-17 12.5-4.4 22.5-5.4 53.2-5.4 31.5 0 39.1.8 55.6 6 24.1 7.6 44.4 23.1 52.4 40l2.5 5.3-.1 113.3c0 62.3-.4 129.5-.9 149.3-.7 32.4-1 36.7-2.9 43.3-8.1 27.6-27.6 50.5-54.7 64-15.7 7.9-39.7 14-63.4 16.3-13.8 1.3-54.5.7-76.5-1.1-42.3-3.5-72.5-14.7-93.3-34.4-12.1-11.5-19.2-22.8-24.6-39.2l-2.7-8.1.4-242.9c.3-270.3-.3-247.5 7.1-264.5 5.3-12.3 9.3-18.3 19.3-28.9 16.6-17.4 32.9-26.6 61-34.1 25-6.7 27.1-6.8 76.3-6.5 35.4.3 46.1.7 52.3 1.9z"/>
  <path
    d="M417 352.5c-6.5 1.6-18.3 6.5-25.8 10.7-14.4 8-32.7 12.6-39.4 9.9-1.6-.6-4.3-3.4-6.3-6.6l-3.6-5.5h-20.7c-18.9 0-21 .2-24 2-1.8 1.1-3.9 2-4.6 2-2.4 0-7.3 4.8-8.1 7.7-.3 1.6-1.4 3.6-2.2 4.5-2.5 2.8-2.8 10.8-.7 15.4 1.8 3.7 1.9 8.4 1.9 104.4 0 93.4-.1 100.8-1.7 104.8-1.3 3.1-1.8 7-1.8 14.3v10.2l6.8-.7c5.6-.6 7.3-.3 10.7 1.4 3.4 1.7 5.8 2 19.3 2 16.6 0 18.5-.5 23.3-5.7 5.6-6 5.4-3.8 5.7-61.1l.3-53.2 3.8-2.5c4.5-3 14-5.1 27.3-6l9.8-.7.2-29.7.3-29.6 7.5-2.1c10.7-3.1 23.3-5.1 44-7l18-1.7V365l-6-4.4c-10.8-8-23.1-10.9-34-8.1zm19.2 18.6l3.8 1.9v40.9l-4.2.5c-2.4.3-8.8 1-14.3 1.6-14 1.6-31.3 5.6-42.2 9.7l-9.3 3.6v27.3c0 26.9 0 27.4-2 27.4-4.8 0-17.9 3.3-23 5.9-3 1.5-7.9 4.5-10.8 6.6l-5.2 3.9V555c0 41.1-.3 54.9-1.2 55.8-1.5 1.5-22.4 1.7-23.3.1-.4-.5-1.8-1.5-3.2-2-2.1-.8-2.4-1.3-1.7-3.2 1.2-3.4 1.7-198.4.5-210.4-.6-5.6-.8-10.9-.5-11.7.3-.8 2.1-2.4 4-3.6 3-1.7 5.2-2 15.8-2h12.2l5.1 4.9c6.9 6.6 12.8 8.5 24.2 7.9 10.7-.7 20.1-3.7 38.1-12.5 22.4-10.8 27.9-11.9 37.2-7.2z"/>
</svg>
