<svg xmlns="http://www.w3.org/2000/svg" viewBox="0 0 24 24">
  <path fill="none" d="M0 0h24v24H0V0z"/>
  <path stroke="null"
        d="M17.33 1.28c-2.08 0-4.07.96-5.38 2.5a7.16 7.16 0 00-5.38-2.5A6.51 6.51 0 000 7.85c0 4.52 4.06 8.2 10.22 13.8l1.73 1.56 1.74-1.58c6.15-5.58 10.21-9.26 10.21-13.78a6.5 6.5 0 00-6.57-6.57zm-5.26 18.58l-.12.12-.12-.12C6.14 14.71 2.4 11.3 2.4 7.85c0-2.39 1.8-4.18 4.18-4.18a4.66 4.66 0 014.27 2.82h2.24a4.64 4.64 0 014.25-2.82c2.4 0 4.18 1.79 4.18 4.18 0 3.45-3.75 6.86-9.44 12.01z"/>
</svg>
