<svg xmlns="http://www.w3.org/2000/svg" viewBox="0 0 24 24"><path fill="#eee" d="M19 18.2h-4.8v3.2l-4.3-3.2H5a.6.6 0 0 1-.6-.6v-1.7l4-3 3.7 2.8 3.7-2.9 4 3v1.8a.6.6 0 0 1-.6.6M7.2 12l-3 2.3V9.8zm12.5-2.2v4.5l-3-2.3zM5 5.6h2.8L12 9.1l4.3-3.5h2.8c.3 0 .6.3.6.7v1.9L12 14.1 4.3 8.2v-2c0-.3.3-.6.6-.6zm3.4-3.8a1.9 1.9 0 0 1 2.7 0l1 1 1-1a1.9 1.9 0 0 1 2.7 0 1.9 1.9 0 0 1 0 2.7l-3.7 3-3.7-3a1.9 1.9 0 0 1 0-2.7m10.8 2.5h-1.8a3.2 3.2 0 0 0-.7-3.4A3.2 3.2 0 0 0 12 1a3.1 3.1 0 0 0-2.3-1 3.1 3.1 0 0 0-2.3 1 3.2 3.2 0 0 0-.7 3.3H5a2 2 0 0 0-1.9 2v11.3a2 2 0 0 0 2 1.9h4.5l6 4.5v-4.5H19a2 2 0 0 0 1.9-2V6.4a2 2 0 0 0-2-2"/></svg>
