<svg xmlns="http://www.w3.org/2000/svg" viewBox="0 0 24 24"><path fill="#FF4301" d="M12 0a12 12 0 0 0-8.5 20.5l-2.3 2.3a.7.7 0 0 0 .5 1.2H12a12 12 0 0 0 0-24m4.4 3.2a2 2 0 1 1-2 2.5 2.4 2.4 0 0 0-2 2.3 9 9 0 0 1 4.7 1.4A2.8 2.8 0 1 1 20 14c0 3.3-3.6 5.9-8 5.9S4.1 17.3 4 14a2.8 2.8 0 0 1 1.2-5.3c.6 0 1.2.2 1.7.6A9.6 9.6 0 0 1 11.5 8a3.2 3.2 0 0 1 3-3.2 2 2 0 0 1 1.9-1.6m-8.1 8.4c-.8 0-1.5.8-1.5 1.8s.6 1.4 1.4 1.4 1.4-.4 1.4-1.4-.5-1.8-1.3-1.8m7.4 0c-.8 0-1.4.8-1.3 1.8s.6 1.4 1.4 1.4c.8 0 1.5-.4 1.4-1.4 0-1-.7-1.8-1.5-1.8m-3.7 4-2.8.1a.2.2 0 0 0-.1.3 3.2 3.2 0 0 0 3 2 3.2 3.2 0 0 0 2.9-2 .2.2 0 0 0-.2-.3 28 28 0 0 0-2.8-.1"/></svg>
